<svg version="1.1" id="Layer_1" xmlns="http://www.w3.org/2000/svg" xmlns:xlink="http://www.w3.org/1999/xlink" x="0px" y="0px"
	 viewBox="0 0 441 372" style="enable-background:new 0 0 441 372;" xml:space="preserve">
<style type="text/css">
	.st0{fill-rule:evenodd;clip-rule:evenodd;fill:#F0F1F7;}
	.st1{fill-rule:evenodd;clip-rule:evenodd;fill:#FFFFFF;}
	.st2{fill-rule:evenodd;clip-rule:evenodd;fill:#D6D7DC;}
	.st3{fill-rule:evenodd;clip-rule:evenodd;fill:#EAEBED;}
	.st4{fill-rule:evenodd;clip-rule:evenodd;fill:#AFB0B6;}
	.st5{opacity:0.5;fill-rule:evenodd;clip-rule:evenodd;fill:#88898E;enable-background:new    ;}
	.st6{fill-rule:evenodd;clip-rule:evenodd;fill:#F0F1F7;fill-opacity:0.75;}
	.st7{fill-rule:evenodd;clip-rule:evenodd;fill:#88898E;}
	.st8{fill-rule:evenodd;clip-rule:evenodd;fill:#FFCEC8;}
	.st9{fill-rule:evenodd;clip-rule:evenodd;fill:#FFABA1;}
	.st10{fill-rule:evenodd;clip-rule:evenodd;}
	.st11{fill-rule:evenodd;clip-rule:evenodd;fill:#4B4D53;}
	.st12{fill-rule:evenodd;clip-rule:evenodd;fill:#FAFAFC;}
	.st13{opacity:0.5;fill-rule:evenodd;clip-rule:evenodd;fill:#AFB0B6;enable-background:new    ;}
</style>
<g id="Mockups">
	<g id="_x30_4-Horizontal-Create-an-Account---Enabled" transform="translate(-1136.000000, -735.000000)">
		<g id="Illustration_441x372_gray" transform="translate(1136.000000, 735.000000)">
			<g id="lrg-dots" transform="translate(176.578225, -0.000000)">
				<path id="Fill-209" class="st0" d="M4.6,2.3c0,1.3-1,2.3-2.3,2.3C1,4.6,0,3.6,0,2.3S1,0,2.3,0C3.6,0,4.6,1,4.6,2.3"/>
				<path id="Fill-210" class="st0" d="M20.1,2.3c0,1.3-1,2.3-2.3,2.3c-1.3,0-2.3-1-2.3-2.3s1-2.3,2.3-2.3C19.1,0,20.1,1,20.1,2.3"
					/>
				<path id="Fill-211" class="st0" d="M36.6,2.3c0,1.3-1,2.3-2.3,2.3c-1.3,0-2.3-1-2.3-2.3S33,0,34.3,0C35.6,0,36.6,1,36.6,2.3"/>
				<path id="Fill-212" class="st0" d="M52.2,2.3c0,1.3-1,2.3-2.3,2.3s-2.3-1-2.3-2.3s1-2.3,2.3-2.3S52.2,1,52.2,2.3"/>
				<path id="Fill-213" class="st0" d="M4.6,15.1c0,1.3-1,2.3-2.3,2.3c-1.3,0-2.3-1-2.3-2.3c0-1.3,1-2.3,2.3-2.3
					C3.6,12.8,4.6,13.8,4.6,15.1"/>
				<path id="Fill-214" class="st0" d="M20.1,15.1c0,1.3-1,2.3-2.3,2.3c-1.3,0-2.3-1-2.3-2.3c0-1.3,1-2.3,2.3-2.3
					C19.1,12.8,20.1,13.8,20.1,15.1"/>
				<path id="Fill-215" class="st0" d="M36.6,15.1c0,1.3-1,2.3-2.3,2.3c-1.3,0-2.3-1-2.3-2.3c0-1.3,1-2.3,2.3-2.3
					C35.6,12.8,36.6,13.8,36.6,15.1"/>
				<path id="Fill-216" class="st0" d="M52.2,15.1c0,1.3-1,2.3-2.3,2.3s-2.3-1-2.3-2.3c0-1.3,1-2.3,2.3-2.3S52.2,13.8,52.2,15.1"/>
				<path id="Fill-217" class="st0" d="M4.6,27.9c0,1.3-1,2.3-2.3,2.3c-1.3,0-2.3-1-2.3-2.3c0-1.3,1-2.3,2.3-2.3
					C3.6,25.6,4.6,26.6,4.6,27.9"/>
				<path id="Fill-218" class="st0" d="M20.1,27.9c0,1.3-1,2.3-2.3,2.3c-1.3,0-2.3-1-2.3-2.3c0-1.3,1-2.3,2.3-2.3
					C19.1,25.6,20.1,26.6,20.1,27.9"/>
				<path id="Fill-219" class="st0" d="M36.6,27.9c0,1.3-1,2.3-2.3,2.3c-1.3,0-2.3-1-2.3-2.3c0-1.3,1-2.3,2.3-2.3
					C35.6,25.6,36.6,26.6,36.6,27.9"/>
				<path id="Fill-220" class="st0" d="M52.2,27.9c0,1.3-1,2.3-2.3,2.3s-2.3-1-2.3-2.3c0-1.3,1-2.3,2.3-2.3S52.2,26.6,52.2,27.9"/>
				<path id="Fill-221" class="st0" d="M4.6,39.8c0,1.3-1,2.3-2.3,2.3c-1.3,0-2.3-1-2.3-2.3s1-2.3,2.3-2.3
					C3.6,37.5,4.6,38.5,4.6,39.8"/>
				<path id="Fill-222" class="st0" d="M20.1,39.8c0,1.3-1,2.3-2.3,2.3c-1.3,0-2.3-1-2.3-2.3s1-2.3,2.3-2.3
					C19.1,37.5,20.1,38.5,20.1,39.8"/>
				<path id="Fill-223" class="st0" d="M36.6,39.8c0,1.3-1,2.3-2.3,2.3c-1.3,0-2.3-1-2.3-2.3s1-2.3,2.3-2.3
					C35.6,37.5,36.6,38.5,36.6,39.8"/>
				<path id="Fill-224" class="st0" d="M52.2,39.8c0,1.3-1,2.3-2.3,2.3s-2.3-1-2.3-2.3s1-2.3,2.3-2.3S52.2,38.5,52.2,39.8"/>
			</g>
			<g id="sm-monitor" transform="translate(0.000000, 60.384263)">
				<polygon id="Fill-225" class="st1" points="0.9,136.3 187.6,136.3 187.6,0.9 0.9,0.9 				"/>
				<path id="Fill-226" class="st0" d="M1.9,135.4h184.7V1.9H1.9V135.4z M187.5,137.2H0.9c-0.5,0-0.9-0.4-0.9-0.9V0.9
					C0,0.4,0.4,0,0.9,0h186.6c0.5,0,0.9,0.4,0.9,0.9v135.4C188.5,136.8,188.1,137.2,187.5,137.2L187.5,137.2z"/>
				<polygon id="Fill-227" class="st0" points="0.9,12.8 187.6,12.8 187.6,0.9 0.9,0.9 				"/>
				<path id="Fill-228" class="st1" d="M11.9,6.4c0,1.5-1.2,2.7-2.7,2.7c-1.5,0-2.7-1.2-2.7-2.7s1.2-2.7,2.7-2.7
					C10.7,3.7,11.9,4.9,11.9,6.4"/>
				<path id="Fill-229" class="st1" d="M20.1,6.4c0,1.5-1.2,2.7-2.7,2.7c-1.5,0-2.7-1.2-2.7-2.7s1.2-2.7,2.7-2.7
					C18.9,3.7,20.1,4.9,20.1,6.4"/>
				<path id="Fill-230" class="st1" d="M27.4,6.4c0,1.5-1.2,2.7-2.7,2.7c-1.5,0-2.7-1.2-2.7-2.7s1.2-2.7,2.7-2.7
					C26.2,3.7,27.4,4.9,27.4,6.4"/>
			</g>
			<g id="code-lines" transform="translate(246.111619, 44.724611)">
				<path id="Fill-235" class="st2" d="M173.8,14.2H0.9c-0.5,0-0.9-0.4-0.9-0.8s0.4-0.8,0.9-0.8h172.9c0.5,0,0.9,0.4,0.9,0.8
					S174.3,14.2,173.8,14.2"/>
				<path id="Fill-234" class="st2" d="M0.9,13.4h172.9H0.9z"/>
				<path id="Fill-237" class="st2" d="M107,27.9H0.9c-0.5,0-0.9-0.4-0.9-0.8c0-0.5,0.4-0.8,0.9-0.8H107c0.5,0,0.9,0.4,0.9,0.8
					C108,27.6,107.5,27.9,107,27.9"/>
				<path id="Fill-241" class="st2" d="M173.8,39.8H0.9C0.4,39.8,0,39.4,0,39s0.4-0.8,0.9-0.8h172.9c0.5,0,0.9,0.4,0.9,0.8
					S174.3,39.8,173.8,39.8"/>
				<path id="Fill-243" class="st2" d="M57.6,53.5H0.9c-0.5,0-0.9-0.4-0.9-0.8c0-0.5,0.4-0.8,0.9-0.8h56.7c0.5,0,0.9,0.4,0.9,0.8
					C58.6,53.2,58.1,53.5,57.6,53.5"/>
				<path id="Fill-245" class="st2" d="M173.8,53.5h-96c-0.5,0-0.9-0.4-0.9-0.8c0-0.5,0.4-0.8,0.9-0.8h96c0.5,0,0.9,0.4,0.9,0.8
					C174.7,53.2,174.3,53.5,173.8,53.5"/>
				<path id="Fill-247" class="st2" d="M109.8,64.5H0.9c-0.5,0-0.9-0.4-0.9-0.8s0.4-0.8,0.9-0.8h108.8c0.5,0,0.9,0.4,0.9,0.8
					S110.3,64.5,109.8,64.5"/>
				<path id="Fill-251" class="st2" d="M173.8,73.7H0.9c-0.5,0-0.9-0.4-0.9-0.8S0.4,72,0.9,72h172.9c0.5,0,0.9,0.4,0.9,0.8
					S174.3,73.7,173.8,73.7"/>
				<path id="Fill-249" class="st2" d="M173.8,64.5h-48.4c-0.5,0-0.9-0.4-0.9-0.8s0.4-0.8,0.9-0.8h48.4c0.5,0,0.9,0.4,0.9,0.8
					S174.3,64.5,173.8,64.5"/>
			</g>
			<g id="dots" transform="translate(40.256176, 253.430924)">
				<path id="Fill-252" class="st2" d="M25.4,1.5c0.1-0.1,0.1-0.3,0.1-0.4c-0.2,0.2-0.5,0.4-0.8,0.6C25,1.7,25.2,1.7,25.4,1.5"/>
				<path id="Fill-253" class="st2" d="M19.2,8.2c0.3-0.3,0.2-0.8-0.1-1c0,0-0.1,0-0.1,0c-0.3,0.3-0.6,0.7-0.8,1c0,0,0,0.1,0,0.1
					C18.5,8.5,18.9,8.5,19.2,8.2"/>
				<path id="Fill-254" class="st2" d="M22.8,5.5c-0.3,0.3-0.2,0.8,0.1,1c0.3,0.3,0.8,0.2,1-0.1c0.3-0.3,0.2-0.8-0.1-1
					C23.5,5.1,23,5.2,22.8,5.5"/>
				<path id="Fill-255" class="st2" d="M13.3,15c0,0-0.1,0.1-0.1,0.1c0,0,0,0,0,0C13.3,15.1,13.3,15.1,13.3,15"/>
				<path id="Fill-256" class="st2" d="M17.3,11.9c-0.3,0.3-0.2,0.8,0.1,1c0.3,0.3,0.8,0.2,1-0.1c0.3-0.3,0.2-0.8-0.1-1
					C18,11.6,17.6,11.6,17.3,11.9"/>
				<path id="Fill-257" class="st2" d="M12.8,20.1c0.3-0.3,0.2-0.8-0.1-1c-0.2-0.1-0.4-0.2-0.6-0.1c-0.2,0.3-0.3,0.6-0.5,0.9
					c0,0.1,0.1,0.2,0.1,0.3C12.1,20.5,12.6,20.4,12.8,20.1"/>
				<path id="Fill-258" class="st2" d="M27.4,3.7c-0.3,0.3-0.2,0.8,0.1,1c0.3,0.3,0.8,0.2,1-0.1h0c0-0.3,0-0.6-0.1-1c0,0,0,0,0,0
					C28.1,3.3,27.7,3.4,27.4,3.7"/>
				<path id="Fill-259" class="st2" d="M21.9,10.1c-0.3,0.3-0.2,0.8,0.1,1c0.3,0.3,0.8,0.2,1-0.1c0.3-0.3,0.2-0.8-0.1-1
					C22.6,9.7,22.1,9.8,21.9,10.1"/>
				<path id="Fill-260" class="st2" d="M25.5,12.8c-0.3,0.3-0.2,0.8,0.1,1c0.3,0.3,0.8,0.2,1-0.1c0.3-0.3,0.2-0.8-0.1-1
					C26.2,12.5,25.8,12.5,25.5,12.8"/>
				<path id="Fill-261" class="st2" d="M26.4,8.2c-0.3,0.3-0.2,0.8,0.1,1c0.3,0.3,0.8,0.2,1-0.1c0.3-0.3,0.2-0.8-0.1-1
					S26.7,7.9,26.4,8.2"/>
				<path id="Fill-262" class="st2" d="M15.5,17.4c-0.3,0.3-0.2,0.8,0.1,1c0.3,0.3,0.8,0.2,1-0.1c0.3-0.3,0.2-0.8-0.1-1
					S15.7,17.1,15.5,17.4"/>
				<path id="Fill-263" class="st2" d="M19.1,20.1c-0.3,0.3-0.2,0.8,0.1,1c0.3,0.3,0.8,0.2,1-0.1c0.3-0.3,0.2-0.8-0.1-1
					C19.8,19.8,19.4,19.8,19.1,20.1"/>
				<path id="Fill-264" class="st2" d="M21,14.6c-0.3,0.3-0.2,0.8,0.1,1c0.3,0.3,0.8,0.2,1-0.1c0.3-0.3,0.2-0.8-0.1-1
					C21.7,14.3,21.2,14.3,21,14.6"/>
				<path id="Fill-265" class="st2" d="M23.7,18.3c-0.3,0.3-0.2,0.8,0.1,1s0.8,0.2,1-0.1c0.3-0.3,0.2-0.8-0.1-1
					C24.4,18,24,18,23.7,18.3"/>
				<path id="Fill-266" class="st2" d="M10,23.8c-0.3,0.3-0.2,0.8,0.1,1c0.3,0.3,0.8,0.2,1-0.1c0.3-0.3,0.2-0.8-0.1-1
					C10.7,23.4,10.2,23.5,10,23.8"/>
				<path id="Fill-267" class="st2" d="M13.6,26.5c-0.3,0.3-0.2,0.8,0.1,1c0.3,0.3,0.8,0.2,1-0.1c0.3-0.3,0.2-0.8-0.1-1
					C14.3,26.2,13.9,26.2,13.6,26.5"/>
				<path id="Fill-268" class="st2" d="M14.5,22c-0.3,0.3-0.2,0.8,0.1,1c0.3,0.3,0.8,0.2,1-0.1c0.3-0.3,0.2-0.8-0.1-1
					C15.3,21.6,14.8,21.7,14.5,22"/>
				<path id="Fill-269" class="st2" d="M18.2,24.7c-0.3,0.3-0.2,0.8,0.1,1c0.3,0.3,0.8,0.2,1-0.1s0.2-0.8-0.1-1
					C18.9,24.4,18.5,24.4,18.2,24.7"/>
				<path id="Fill-270" class="st2" d="M8.1,33.8c-0.3,0.3-0.2,0.8,0.1,1c0.3,0.3,0.8,0.2,1-0.1c0.3-0.3,0.2-0.8-0.1-1
					C8.9,33.5,8.4,33.5,8.1,33.8"/>
				<path id="Fill-271" class="st2" d="M9.1,28.4c-0.3,0.3-0.2,0.8,0.1,1c0.3,0.3,0.8,0.2,1-0.1c0.3-0.3,0.2-0.8-0.1-1
					C9.8,28,9.3,28.1,9.1,28.4"/>
				<path id="Fill-272" class="st2" d="M12.7,32c-0.3,0.3-0.2,0.8,0.1,1c0.3,0.3,0.8,0.2,1-0.1c0.3-0.3,0.2-0.8-0.1-1
					C13.4,31.7,13,31.7,12.7,32"/>
				<path id="Fill-273" class="st2" d="M6.3,38.4c-0.3,0.3-0.2,0.8,0.1,1s0.8,0.2,1-0.1c0.3-0.3,0.2-0.8-0.1-1S6.6,38.1,6.3,38.4"/>
				<path id="Fill-274" class="st2" d="M28.8,16.6c0.1,0.1,0.2,0.1,0.3,0.1c0-0.4,0-0.9,0-1.3c-0.2,0-0.3,0.1-0.4,0.2
					C28.4,15.9,28.5,16.3,28.8,16.6"/>
				<path id="Fill-275" class="st2" d="M22.8,22.9c-0.3,0.3-0.2,0.8,0.1,1c0.3,0.3,0.8,0.2,1-0.1c0.3-0.3,0.2-0.8-0.1-1
					C23.5,22.5,23,22.6,22.8,22.9"/>
				<path id="Fill-276" class="st2" d="M26.4,25.6c-0.3,0.3-0.2,0.8,0.1,1c0.3,0.3,0.8,0.2,1-0.1c0.3-0.3,0.2-0.8-0.1-1
					S26.7,25.3,26.4,25.6"/>
				<path id="Fill-277" class="st2" d="M27.4,21c-0.3,0.3-0.2,0.8,0.1,1c0.3,0.3,0.8,0.2,1-0.1c0.3-0.3,0.2-0.8-0.1-1
					S27.6,20.7,27.4,21"/>
				<path id="Fill-278" class="st2" d="M18.4,30.2c0.3-0.3,0.2-0.8-0.1-1c-0.3-0.3-0.8-0.2-1,0.1s-0.2,0.8,0.1,1
					C17.7,30.5,18.1,30.5,18.4,30.2"/>
				<path id="Fill-279" class="st2" d="M21.1,33.9c0.3-0.3,0.2-0.8-0.1-1c-0.3-0.3-0.8-0.2-1,0.1c-0.3,0.3-0.2,0.8,0.1,1
					C20.4,34.2,20.9,34.2,21.1,33.9"/>
				<path id="Fill-280" class="st2" d="M21.9,27.4c-0.3,0.3-0.2,0.8,0.1,1c0.3,0.3,0.8,0.2,1-0.1c0.3-0.3,0.2-0.8-0.1-1
					C22.6,27.1,22.1,27.1,21.9,27.4"/>
				<path id="Fill-281" class="st2" d="M24.6,30.2c-0.3,0.3-0.2,0.8,0.1,1c0.3,0.3,0.8,0.2,1-0.1c0.3-0.3,0.2-0.8-0.1-1
					C25.3,29.8,24.9,29.9,24.6,30.2"/>
				<path id="Fill-282" class="st2" d="M10.9,36.6c-0.3,0.3-0.2,0.8,0.1,1s0.8,0.2,1-0.1c0.3-0.3,0.2-0.8-0.1-1
					C11.6,36.3,11.1,36.3,10.9,36.6"/>
				<path id="Fill-283" class="st2" d="M14.6,39.3c-0.3,0.3-0.2,0.8,0.1,1c0.3,0.3,0.8,0.2,1-0.1c0.3-0.3,0.2-0.8-0.1-1
					C15.3,39,14.8,39,14.6,39.3"/>
				<path id="Fill-284" class="st2" d="M15.5,34.8c-0.3,0.3-0.2,0.8,0.1,1c0.3,0.3,0.8,0.2,1-0.1s0.2-0.8-0.1-1
					C16.2,34.4,15.7,34.5,15.5,34.8"/>
				<path id="Fill-285" class="st2" d="M20.2,38.4c0.3-0.3,0.2-0.8-0.1-1c-0.3-0.3-0.8-0.2-1,0.1c-0.3,0.3-0.2,0.8,0.1,1
					C19.5,38.8,20,38.7,20.2,38.4"/>
				<path id="Fill-286" class="st2" d="M5.4,43c-0.3,0.3-0.2,0.8,0.1,1c0.3,0.3,0.8,0.2,1-0.1c0.3-0.3,0.2-0.8-0.1-1
					S5.7,42.7,5.4,43"/>
				<path id="Fill-287" class="st2" d="M9.1,45.7c-0.3,0.3-0.2,0.8,0.1,1c0.3,0.3,0.8,0.2,1-0.1c0.3-0.3,0.2-0.8-0.1-1
					C9.8,45.4,9.3,45.4,9.1,45.7"/>
				<path id="Fill-288" class="st2" d="M11.1,42.1c0.3-0.3,0.2-0.8-0.1-1c-0.3-0.3-0.8-0.2-1,0.1c-0.3,0.3-0.2,0.8,0.1,1
					C10.4,42.4,10.8,42.4,11.1,42.1"/>
				<path id="Fill-289" class="st2" d="M14.7,44.8c0.3-0.3,0.2-0.8-0.1-1c-0.3-0.3-0.8-0.2-1,0.1c-0.3,0.3-0.2,0.8,0.1,1
					C14,45.2,14.5,45.1,14.7,44.8"/>
				<path id="Fill-290" class="st2" d="M2.7,53.1c-0.3,0.3-0.2,0.8,0.1,1c0.3,0.3,0.8,0.2,1-0.1C4,53.7,4,53.2,3.7,53
					S2.9,52.8,2.7,53.1"/>
				<path id="Fill-291" class="st2" d="M5.6,49.4c0.3-0.3,0.2-0.8-0.1-1c-0.3-0.3-0.8-0.2-1,0.1c-0.3,0.3-0.2,0.8,0.1,1
					C4.9,49.8,5.3,49.7,5.6,49.4"/>
				<path id="Fill-292" class="st2" d="M8.3,52.2c0.3-0.3,0.2-0.8-0.1-1c-0.3-0.3-0.8-0.2-1,0.1C7,51.5,7,52,7.3,52.2
					S8.1,52.5,8.3,52.2"/>
				<path id="Fill-293" class="st2" d="M1.8,58.6c0.3,0.3,0.8,0.2,1-0.1c0.3-0.3,0.2-0.8-0.1-1c-0.3-0.3-0.7-0.2-1,0.1
					c0,0.2,0,0.5-0.1,0.7C1.7,58.5,1.7,58.6,1.8,58.6"/>
				<path id="Fill-294" class="st2" d="M23.7,35.7c-0.3,0.3-0.2,0.8,0.1,1s0.8,0.2,1-0.1c0.3-0.3,0.2-0.8-0.1-1
					C24.4,35.3,24,35.4,23.7,35.7"/>
				<path id="Fill-295" class="st2" d="M27,38.9C27,38.9,27,38.9,27,38.9C27,38.9,27,38.9,27,38.9"/>
				<path id="Fill-296" class="st2" d="M19.3,43c0.3-0.3,0.2-0.8-0.1-1c-0.3-0.3-0.8-0.2-1,0.1c-0.3,0.3-0.2,0.8,0.1,1
					C18.6,43.3,19,43.3,19.3,43"/>
				<path id="Fill-297" class="st2" d="M23,45.7c0.3-0.3,0.2-0.8-0.1-1c-0.3-0.3-0.8-0.2-1,0.1c-0.3,0.3-0.2,0.8,0.1,1
					C22.3,46.1,22.7,46.1,23,45.7"/>
				<path id="Fill-298" class="st2" d="M22.8,40.3c-0.3,0.3-0.2,0.8,0.1,1c0.3,0.3,0.8,0.2,1-0.1c0.3-0.3,0.2-0.8-0.1-1
					C23.5,39.9,23,40,22.8,40.3"/>
				<path id="Fill-299" class="st2" d="M26,43.1c-0.2,0.3-0.2,0.6,0,0.9c0.1-0.3,0.1-0.7,0.2-1C26.2,43,26.1,43,26,43.1"/>
				<path id="Fill-300" class="st2" d="M12.9,50.3c0.3-0.3,0.2-0.8-0.1-1c-0.3-0.3-0.8-0.2-1,0.1c-0.3,0.3-0.2,0.8,0.1,1
					C12.2,50.7,12.6,50.6,12.9,50.3"/>
				<path id="Fill-301" class="st2" d="M16.6,53.1c0.3-0.3,0.2-0.8-0.1-1c-0.3-0.3-0.8-0.2-1,0.1c-0.3,0.3-0.2,0.8,0.1,1
					C15.9,53.4,16.3,53.4,16.6,53.1"/>
				<path id="Fill-302" class="st2" d="M18.4,47.6c0.3-0.3,0.2-0.8-0.1-1c-0.3-0.3-0.8-0.2-1,0.1c-0.3,0.3-0.2,0.8,0.1,1
					C17.7,47.9,18.1,47.9,18.4,47.6"/>
				<path id="Fill-303" class="st2" d="M21.1,51.2c0.3-0.3,0.2-0.8-0.1-1c-0.3-0.3-0.8-0.2-1,0.1c-0.3,0.3-0.2,0.8,0.1,1
					C20.4,51.6,20.9,51.5,21.1,51.2"/>
				<path id="Fill-304" class="st2" d="M7.4,56.7c0.3-0.3,0.2-0.8-0.1-1s-0.8-0.2-1,0.1c-0.3,0.3-0.2,0.8,0.1,1S7.2,57,7.4,56.7"/>
				<path id="Fill-305" class="st2" d="M11.1,59.5c0.3-0.3,0.2-0.8-0.1-1c-0.3-0.3-0.8-0.2-1,0.1c-0.3,0.3-0.2,0.8,0.1,1
					C10.4,59.8,10.8,59.8,11.1,59.5"/>
				<path id="Fill-306" class="st2" d="M11.9,53.9c-0.3-0.3-0.8-0.2-1,0.1c-0.3,0.3-0.2,0.8,0.1,1c0.3,0.3,0.8,0.2,1-0.1
					C12.2,54.6,12.2,54.1,11.9,53.9"/>
				<path id="Fill-307" class="st2" d="M15.6,57.6c0.3-0.3,0.2-0.8-0.1-1c-0.3-0.3-0.8-0.2-1,0.1c-0.3,0.3-0.2,0.8,0.1,1
					C14.9,58,15.4,57.9,15.6,57.6"/>
				<path id="Fill-308" class="st2" d="M1.2,62.9c0,0.4,0,0.8-0.1,1.3c0.1,0,0.3-0.1,0.4-0.2c0.3-0.3,0.2-0.8-0.1-1
					C1.3,63,1.2,63,1.2,62.9"/>
				<path id="Fill-309" class="st2" d="M5.6,66.8c0.3-0.3,0.2-0.8-0.1-1c-0.3-0.3-0.8-0.2-1,0.1c-0.3,0.3-0.2,0.8,0.1,1
					C4.9,67.1,5.3,67.1,5.6,66.8"/>
				<path id="Fill-310" class="st2" d="M6.5,61.3c0.3-0.3,0.2-0.8-0.1-1c-0.3-0.3-0.8-0.2-1,0.1c-0.3,0.3-0.2,0.8,0.1,1
					S6.2,61.6,6.5,61.3"/>
				<path id="Fill-311" class="st2" d="M10.2,65c0.3-0.3,0.2-0.8-0.1-1c-0.3-0.3-0.8-0.2-1,0.1c-0.3,0.3-0.2,0.8,0.1,1
					C9.4,65.3,9.9,65.3,10.2,65"/>
				<path id="Fill-312" class="st2" d="M3.7,71.4c0.3-0.3,0.2-0.8-0.1-1c-0.3-0.3-0.8-0.2-1,0.1c-0.3,0.3-0.2,0.8,0.1,1
					C3,71.7,3.5,71.7,3.7,71.4"/>
				<path id="Fill-313" class="st2" d="M25.1,47.6c-0.3,0.3-0.2,0.8,0.1,1c0,0,0,0,0,0c0.1-0.4,0.2-0.8,0.3-1.2
					C25.3,47.5,25.2,47.5,25.1,47.6"/>
				<path id="Fill-314" class="st2" d="M20.2,55.8c0.3-0.3,0.2-0.8-0.1-1c-0.3-0.3-0.8-0.2-1,0.1c-0.3,0.3-0.2,0.8,0.1,1
					C19.5,56.2,20,56.1,20.2,55.8"/>
				<path id="Fill-315" class="st2" d="M22.4,57.8c-0.2,0.2-0.2,0.4-0.1,0.7c0.1-0.2,0.1-0.5,0.2-0.7C22.5,57.8,22.5,57.8,22.4,57.8
					"/>
				<path id="Fill-316" class="st2" d="M23.2,53.1c-0.2,0.3-0.2,0.7,0,0.9c0.1-0.4,0.2-0.7,0.3-1.1C23.5,53,23.3,53,23.2,53.1"/>
				<path id="Fill-317" class="st2" d="M14.7,62.2c0.3-0.3,0.2-0.8-0.1-1c-0.3-0.3-0.8-0.2-1,0.1c-0.3,0.3-0.2,0.8,0.1,1
					C14,62.6,14.5,62.5,14.7,62.2"/>
				<path id="Fill-318" class="st2" d="M17.5,65.9c0.3-0.3,0.2-0.8-0.1-1c-0.3-0.3-0.8-0.2-1,0.1c-0.3,0.3-0.2,0.8,0.1,1
					C16.8,66.2,17.2,66.2,17.5,65.9"/>
				<path id="Fill-319" class="st2" d="M19.3,60.4c0.3-0.3,0.2-0.8-0.1-1c-0.3-0.3-0.8-0.2-1,0.1s-0.2,0.8,0.1,1
					C18.6,60.7,19,60.7,19.3,60.4"/>
				<path id="Fill-320" class="st2" d="M8.3,69.5c0.3-0.3,0.2-0.8-0.1-1c-0.3-0.3-0.8-0.2-1,0.1c-0.3,0.3-0.2,0.8,0.1,1
					C7.6,69.9,8.1,69.8,8.3,69.5"/>
				<path id="Fill-321" class="st2" d="M12,72.3c0.3-0.3,0.2-0.8-0.1-1c-0.3-0.3-0.8-0.2-1,0.1c-0.3,0.3-0.2,0.8,0.1,1
					C11.3,72.6,11.7,72.6,12,72.3"/>
				<path id="Fill-322" class="st2" d="M12.8,66.7c-0.3-0.3-0.8-0.2-1,0.1c-0.3,0.3-0.2,0.8,0.1,1c0.3,0.3,0.8,0.2,1-0.1
					C13.2,67.4,13.1,67,12.8,66.7"/>
				<path id="Fill-323" class="st2" d="M16.6,70.5c0.3-0.3,0.2-0.8-0.1-1c-0.3-0.3-0.8-0.2-1,0.1c-0.3,0.3-0.2,0.8,0.1,1
					C15.9,70.8,16.3,70.8,16.6,70.5"/>
				<path id="Fill-324" class="st2" d="M2.8,75.9c0.3-0.3,0.2-0.8-0.1-1c-0.3-0.3-0.8-0.2-1,0.1c-0.3,0.3-0.2,0.8,0.1,1
					C2.1,76.3,2.6,76.2,2.8,75.9"/>
				<path id="Fill-325" class="st2" d="M6.5,79.6c0.3-0.3,0.2-0.8-0.1-1c-0.3-0.3-0.8-0.2-1,0.1c-0.3,0.3-0.2,0.8,0.1,1
					C5.8,79.9,6.2,79.9,6.5,79.6"/>
				<path id="Fill-326" class="st2" d="M7.4,74.1c0.3-0.3,0.2-0.8-0.1-1c-0.3-0.3-0.8-0.2-1,0.1c-0.3,0.3-0.2,0.8,0.1,1
					C6.7,74.5,7.2,74.4,7.4,74.1"/>
				<path id="Fill-327" class="st2" d="M11.1,76.9c0.3-0.3,0.2-0.8-0.1-1c-0.3-0.3-0.8-0.2-1,0.1c-0.3,0.3-0.2,0.8,0.1,1
					C10.4,77.2,10.8,77.2,11.1,76.9"/>
				<path id="Fill-328" class="st2" d="M1.4,81.5c0.3-0.3,0.2-0.8-0.1-1c0,0-0.1,0-0.1,0c0,0.4,0,0.8,0.1,1.1
					C1.3,81.5,1.4,81.5,1.4,81.5"/>
				<path id="Fill-329" class="st2" d="M4.6,83.3c-0.3-0.3-0.8-0.2-1,0.1c-0.2,0.3-0.2,0.6,0,0.9l1.1-0.1
					C4.9,83.9,4.8,83.5,4.6,83.3"/>
				<path id="Fill-330" class="st2" d="M14.6,75.1c0.3,0.3,0.8,0.2,1-0.1c0.3-0.3,0.2-0.8-0.1-1c-0.3-0.3-0.8-0.2-1,0.1
					C14.3,74.4,14.3,74.9,14.6,75.1"/>
				<path id="Fill-331" class="st2" d="M9.2,82.3c0.3-0.3,0.2-0.8-0.1-1c-0.3-0.3-0.8-0.2-1,0.1c-0.3,0.3-0.2,0.8,0.1,1
					C8.5,82.7,9,82.6,9.2,82.3"/>
				<path id="Fill-332" class="st2" d="M13,78.8c-0.2,0.3-0.2,0.6,0,0.9c0.2-0.3,0.4-0.7,0.6-1.1C13.4,78.6,13.2,78.6,13,78.8"/>
			</g>
			<g id="leaf-2" transform="translate(2.744739, 236.962489)">
				<path id="Fill-333" class="st3" d="M4.5,0C1.1,11.1-0.1,21.8,0,31.9l5.4,2.9l-5,5.5c3.1,36.1,22.8,62.3,22.8,62.3l9.9-2.6
					C49.3,18.7,4.5,0,4.5,0"/>
				<path id="Fill-339" class="st1" d="M17.3,48.5c0,0-0.1,0-0.1,0c-0.5-0.1-0.8-0.5-0.8-1l2.8-25.6c0.1-0.5,0.5-0.9,1-0.8
					c0.5,0.1,0.8,0.5,0.8,1l-2.8,25.6C18.2,48.1,17.8,48.5,17.3,48.5"/>
				<path id="Fill-340" class="st1" d="M21,68.6c-0.3,0-0.7-0.2-0.8-0.5c-0.7-0.9-8.6-8.7-13.5-13.4c-0.4-0.4-0.4-1,0-1.4
					C7,53,7.6,53,8,53.3c13.8,13.4,13.8,13.8,13.9,14.1c0.1,0.5-0.2,1-0.7,1.1C21.1,68.6,21.1,68.6,21,68.6"/>
				<path id="Fill-334" class="st1" d="M28.3,101.6c-0.4,0-0.8-0.3-0.9-0.7L8.3,10.3C8.1,9.8,8.5,9.3,9,9.2c0.5-0.1,1,0.2,1.1,0.7
					l19.1,90.5c0.1,0.5-0.2,1-0.7,1.1C28.5,101.5,28.4,101.6,28.3,101.6"/>
			</g>
			<g id="leaf-1" transform="translate(25.617566, 252.516011)">
				<path id="Fill-335" class="st2" d="M7.3,85.1c0,0-21.9-45.3,10.3-85.1c0,0,31.5,24.2-1.7,85.1H7.3z"/>
				<path id="Fill-336" class="st1" d="M11.9,86C11.9,86,11.9,86,11.9,86c-0.6-0.1-1-0.5-0.9-1l7.2-75.9c0.1-0.5,0.5-0.9,1-0.9
					c0.5,0,0.9,0.5,0.9,1l-7.2,75.9C12.8,85.6,12.4,86,11.9,86"/>
			</g>
			<g id="pot" transform="translate(15.553522, 336.688015)">
				<polygon id="Fill-337" class="st1" points="31.7,33.9 7.6,33.9 0.9,0.9 38.4,0.9 				"/>
				<path id="Fill-338" class="st4" d="M8.4,32.9h22.5l6.3-31H2.1L8.4,32.9z M31.7,34.8H7.6c-0.5,0-0.8-0.3-0.9-0.8L0,1.1
					C0,0.8,0,0.6,0.2,0.3C0.4,0.1,0.7,0,1,0h37.4c0.3,0,0.6,0.1,0.7,0.3c0.2,0.2,0.3,0.5,0.2,0.8L32.7,34
					C32.6,34.5,32.2,34.8,31.7,34.8L31.7,34.8z"/>
				<path id="Fill-341" class="st1" d="M2.7,7.8h22.9H2.7z"/>
				<path id="Fill-342" class="st2" d="M25.6,8.6H2.8c-0.5,0-0.9-0.4-0.9-0.8S2.2,7,2.8,7h22.8c0.5,0,0.9,0.4,0.9,0.8
					S26.1,8.6,25.6,8.6"/>
			</g>
			<g id="lg-monitor" transform="translate(36.596523, 115.002745)">
				<g id="Group" transform="translate(23.787740, 0.276304)">
					<path id="Fill-343" class="st1" d="M335.8,240.6H0.9V5.8c0-2.7,2.2-4.9,4.9-4.9h325.1c2.7,0,4.9,2.2,4.9,4.9V240.6z"/>
					<path id="Fill-344" class="st4" d="M1.9,239.7h332.9V5.8c0-2.2-1.8-3.9-3.9-3.9H5.8c-2.2,0-3.9,1.8-3.9,3.9V239.7z
						 M336.7,241.5H0V5.8C0,2.6,2.6,0,5.8,0h325.1c3.2,0,5.8,2.6,5.8,5.8V241.5z"/>
					<path id="Fill-345" class="st1" d="M12.8,227.5V14.9c0-0.7,0.5-1.2,1.2-1.2h308.6c0.7,0,1.2,0.5,1.2,1.2v212.6
						c0,0.7-0.5,1.2-1.2,1.2H14C13.4,228.7,12.8,228.2,12.8,227.5"/>
					<path id="Fill-346" class="st4" d="M14.1,14.7c-0.2,0-0.3,0.1-0.3,0.3v212.5c0,0.2,0.1,0.3,0.3,0.3h308.6
						c0.2,0,0.3-0.1,0.3-0.3V15c0-0.2-0.1-0.3-0.3-0.3H14.1z M322.6,229.6H14.1c-1.2,0-2.2-1-2.2-2.2V15c0-1.2,1-2.2,2.2-2.2h308.6
						c1.2,0,2.2,1,2.2,2.2v212.5C324.8,228.7,323.8,229.6,322.6,229.6L322.6,229.6z"/>
				</g>
				<path id="Fill-347" class="st1" d="M369.5,255.5H14.7c-2.8,0-5.6-1.3-7.4-3.5l-5.8-7c-1.4-1.6-0.2-4.1,1.9-4.1h377.6
					c2.1,0,3.2,2.5,1.9,4.1l-5.8,7C375.1,254.3,372.4,255.5,369.5,255.5"/>
				<path id="Fill-348" class="st5" d="M3.4,241.9c-0.6,0-1.1,0.3-1.4,0.9c-0.3,0.6-0.2,1.2,0.2,1.6l5.8,7c1.7,2,4.1,3.2,6.7,3.2
					h354.8c2.6,0,5-1.1,6.7-3.2l5.8-7c0.4-0.5,0.5-1.1,0.2-1.6c-0.2-0.6-0.8-0.9-1.4-0.9H3.4z M369.5,256.5H14.8
					c-3.1,0-6.1-1.4-8.1-3.8l-5.8-7c-0.9-1-1.1-2.4-0.5-3.7c0.6-1.2,1.7-2,3.1-2h377.5c1.3,0,2.5,0.8,3.1,2c0.6,1.2,0.4,2.7-0.5,3.7
					l-5.8,7C375.6,255.1,372.6,256.5,369.5,256.5L369.5,256.5z"/>
				<path id="Fill-349" class="st0" d="M346.8,25.9H37.5V15.1c0-0.6,0.5-1.1,1.1-1.1h308.1V25.9z"/>
				<path id="Fill-350" class="st1" d="M211.7,248.2h-40c-1.3,0-2.4-1-2.4-2.3v-4.1h44.8v4.1C214.1,247.2,213,248.2,211.7,248.2"/>
				<path id="Fill-351" class="st4" d="M170.2,242v3.6c0,0.9,0.7,1.6,1.5,1.6h39.9c0.8,0,1.5-0.7,1.5-1.6V242H170.2z M211.6,249.1
					h-39.9c-1.9,0-3.4-1.6-3.4-3.6V240H215v5.6C215,247.5,213.5,249.1,211.6,249.1L211.6,249.1z"/>
				<path id="Fill-352" class="st1" d="M328.5,19.9c0,1.3-1,2.3-2.3,2.3c-1.3,0-2.3-1-2.3-2.3c0-1.3,1-2.3,2.3-2.3
					C327.4,17.7,328.5,18.7,328.5,19.9"/>
				<path id="Fill-353" class="st1" d="M336.7,19.9c0,1.3-1,2.3-2.3,2.3s-2.3-1-2.3-2.3c0-1.3,1-2.3,2.3-2.3S336.7,18.7,336.7,19.9"
					/>
			</g>
			<g id="boxes" transform="translate(191.216834, 172.918573)">
				<polygon id="Fill-354" class="st0" points="0,64 64,64 64,0 0,0 				"/>
				<polygon id="Fill-367" class="st0" points="0,139.1 64,139.1 64,75 0,75 				"/>
				<polygon id="Fill-355" class="st0" points="68.6,64 176.6,64 176.6,0 68.6,0 				"/>
				<polygon id="Fill-356" class="st0" points="68.6,139.1 176.6,139.1 176.6,75 68.6,75 				"/>
				<polygon id="Fill-365" class="st1" points="19.2,56.7 57.6,56.7 57.6,49.4 19.2,49.4 				"/>
				<polygon id="Fill-366" class="st1" points="86,90.6 124.4,90.6 124.4,83.3 86,83.3 				"/>
			</g>
			<g id="blue-lines" transform="translate(95.150961, 172.918573)">
				<polygon id="Fill-357" class="st6" points="0,6.4 75.9,6.4 75.9,0 0,0 				"/>
				<polygon id="Fill-358" class="st6" points="0,24.7 75.9,24.7 75.9,18.3 0,18.3 				"/>
				<polygon id="Fill-359" class="st6" points="0,43.9 75.9,43.9 75.9,37.5 0,37.5 				"/>
				<polygon id="Fill-360" class="st6" points="0,62.2 75.9,62.2 75.9,55.8 0,55.8 				"/>
				<polygon id="Fill-361" class="st6" points="0,80.5 75.9,80.5 75.9,74.1 0,74.1 				"/>
				<polygon id="Fill-362" class="st6" points="0,99.7 75.9,99.7 75.9,93.3 0,93.3 				"/>
				<polygon id="Fill-363" class="st6" points="0,118 75.9,118 75.9,111.6 0,111.6 				"/>
				<polygon id="Fill-364" class="st6" points="0,136.3 75.9,136.3 75.9,129.9 0,129.9 				"/>
			</g>
			<g id="laptop" transform="translate(255.260750, 194.876487)">
				<path id="Fill-423" class="st1" d="M56.9,0.9c1.8,0,3.4,1.2,4,2.9l9,28.2l15.7,0c2.7,0,5,2.1,5,4.6c0,0.5-0.4,0.9-0.9,0.9H10.5
					c-0.4,0-0.8-0.2-0.9-0.6l-1.3-3.7c-0.1-0.3,0-0.6,0.1-0.8C8.6,32.2,8.9,32,9.2,32l0.1,0L1.1,6.4c-0.9-2.7,1.2-5.4,4-5.4H56.9z"
					/>
				<path id="Fill-387" class="st2" d="M11.5,35.6H70L60,4.1c-0.4-1.3-1.7-2.3-3.1-2.3H5.1c-1,0-2,0.5-2.6,1.3S1.7,5.1,2,6.1
					L11.5,35.6z M71.3,37.5H10.8c-0.4,0-0.8-0.3-0.9-0.7L0.2,6.7C-0.3,5.1,0,3.4,1,2.1C2,0.8,3.5,0,5.1,0h51.8
					c2.2,0,4.2,1.4,4.9,3.6l10.4,32.7c0.1,0.3,0,0.6-0.1,0.8C71.9,37.4,71.6,37.5,71.3,37.5L71.3,37.5z"/>
				<path id="Fill-388" class="st2" d="M64.4,33.9H16.5c-0.7,0-1.2-0.4-1.4-1L6.5,6.6c-0.3-1,0.4-2,1.4-2h47.9c0.7,0,1.2,0.4,1.4,1
					l8.6,26.2C66.1,32.8,65.4,33.9,64.4,33.9"/>
			</g>
			<g id="gray-pants" transform="translate(297.346752, 239.707228)">
				<path id="Fill-392" class="st7" d="M59.4,124.2l1,4.8l-31.1,0v-0.4c0-1,0.7-2,1.7-2.3l16.6-5.5l2.5,2.9
					C50.1,123.6,54,126.4,59.4,124.2"/>
				<polygon id="Fill-393" class="st7" points="29.3,129.6 29.3,131.2 61.3,131.1 60.9,129.6 				"/>
				<path id="Fill-396" class="st7" d="M31,124.2l1,4.8l-31.1,0v-0.4c0-1,0.7-2,1.7-2.3l16.6-5.5l2.5,2.9
					C21.7,123.6,25.6,126.4,31,124.2"/>
				<polygon id="Fill-397" class="st7" points="0,129.6 0,131.2 32,131.1 31.6,129.6 				"/>
				<path id="Fill-407" class="st7" d="M56.1,0v4L19,10.6C13,11.7,7.7,15.4,4.6,20.7c-2.4,4.2-3.3,9.2-2.5,14l14.7,84.2h15.9
					l-3-85.4l1.1-6.2h37L75,0H56.1z"/>
				<polygon id="Fill-420" class="st7" points="31.3,62.8 44.4,118 61.3,118 51.8,32.9 30.2,32.9 				"/>
				<path id="Fill-394" class="st4" d="M38.5,119.8c0,0.4,0.1,1.1,0.6,1.5c0.5,0.4,1.4,0.4,1.9,0.4c0-0.4-0.1-1.1-0.6-1.5
					C39.9,119.8,39.1,119.8,38.5,119.8L38.5,119.8z M41,122.6c-0.7,0-1.8-0.1-2.5-0.7c-1.1-0.9-0.9-2.5-0.9-2.6
					c0-0.2,0.2-0.3,0.4-0.4c0.1,0,2-0.2,3.2,0.6c1.1,0.9,1,2.5,0.9,2.6c0,0.2-0.2,0.3-0.4,0.4C41.6,122.6,41.3,122.6,41,122.6
					L41,122.6z"/>
				<path id="Fill-398" class="st4" d="M10.2,119.8c0,0.4,0.1,1.1,0.6,1.5c0.5,0.4,1.4,0.4,1.9,0.4c0-0.4-0.1-1.1-0.6-1.5
					C11.5,119.8,10.7,119.8,10.2,119.8L10.2,119.8z M12.6,122.6c-0.7,0-1.8-0.1-2.5-0.7c-1.1-0.9-0.9-2.5-0.9-2.6
					c0-0.2,0.2-0.3,0.4-0.4c0.1,0,2-0.2,3.2,0.6c1.1,0.9,1,2.5,0.9,2.6c0,0.2-0.2,0.3-0.4,0.4C13.2,122.6,13,122.6,12.6,122.6
					L12.6,122.6z"/>
			</g>
			<g id="desk" transform="translate(220.494053, 230.558097)">
				<path id="Fill-399" class="st1" d="M178.6,10.1H4.4C2,10.1,0,8,0,5.5s2-4.6,4.4-4.6h174.1c2.4,0,4.4,2,4.4,4.6
					S181,10.1,178.6,10.1"/>
				<path id="Fill-400" class="st2" d="M5.4,1.9c-1.9,0-3.5,1.6-3.5,3.6c0,2,1.6,3.6,3.5,3.6h174.1c1.9,0,3.5-1.6,3.5-3.6
					c0-2-1.6-3.6-3.5-3.6H5.4z M179.5,11H5.4C2.4,11,0,8.5,0,5.5C0,2.5,2.4,0,5.4,0h174.1c3,0,5.4,2.5,5.4,5.5
					C184.8,8.5,182.4,11,179.5,11L179.5,11z"/>
			</g>
			<g id="Skin" transform="translate(284.559927, 133.577310)">
				<polygon id="Fill-391" class="st8" points="72.3,230.8 71.2,224.2 60.4,224.2 60.4,227 60.4,230.8 64.6,233.3 68.3,233.3
					"/>
				<polygon id="Fill-395" class="st8" points="43.9,230.8 42.8,224.2 32,224.2 32,227 32,230.8 36.2,233.3 39.9,233.3 				"/>
				<path id="Fill-401" class="st8" d="M78.8,1.3l-2,18.8c0,0-0.1,4.9,8.5,4.9l0.9,6.2l16.2-0.7l-1.8-10.6L99,0L78.8,1.3z"/>
				<path id="Fill-383" class="st8" d="M12.8,54.9l-1.2-1.8L8,49.3l-2.4-0.3c-0.3,0-0.6-0.2-0.8-0.4l-2.7-2.4
					c-0.3-0.2-0.4-0.6-0.2-0.8c0.1-0.2,0.5-0.2,0.7-0.1L3.5,46l-2.1-2.6c-0.1-0.1-0.1-0.3,0-0.4c0.1-0.1,0.2-0.2,0.4-0.2
					c-0.3-0.4-0.6-0.7-0.8-1.1c-0.1-0.2-0.1-0.5,0.1-0.6C1.2,41,1.4,40.9,1.6,41c1.2,0.9,2.3,1.9,3.5,2.8l2,0.4l-2.2-1.4l-2.8-2.5
					C2,40.2,1.9,40,2,39.9c0.1-0.2,0.3-0.3,0.5-0.2c2.6,1.2,5.2,2.4,7.8,3.6l2.6,1.4l0.2-0.4l-0.8-1.7c-0.3-0.6-0.4-1.2-0.4-1.8
					c0-0.7,0.6-1.3,1.3-1.4l0.6,2.5c0,0,1.4,2.7,1.4,2.8c0.1,0.1,2.1,4.3,2.1,4.3l1.8,2.7L12.8,54.9z"/>
				<path id="Fill-384" class="st9" d="M7,47.6c0,0-0.1,0-0.1,0l-3.1-1.3c0,0-0.1,0-0.1-0.1L1,43.5c-0.1-0.1-0.1-0.3,0-0.4
					c0.1-0.1,0.3-0.1,0.4,0l2.7,2.6l3,1.3c0.2,0.1,0.2,0.3,0.2,0.4C7.2,47.5,7.1,47.6,7,47.6"/>
				<path id="Fill-385" class="st9" d="M7,48.2c0,0-0.1,0-0.1,0l-2.5-0.8c0,0-0.1,0-0.1,0l-1.4-0.9c-0.1-0.1-0.2-0.3-0.1-0.4
					C2.9,46,3.1,46,3.3,46l1.4,0.9l2.4,0.8c0.2,0.1,0.3,0.2,0.2,0.4C7.2,48.2,7.1,48.2,7,48.2"/>
			</g>
			<g id="black-hair" transform="translate(362.305581, 124.428179)">
				<path id="Fill-402" class="st10" d="M11.5,19.5c0,0,4.2-1.6,4.8,2.2c0.6,3.8-3.5,3.8-5.4,3.8c0,0-2.5,5.5,2.7,6.8
					c5.3,1.4,9.7,0,9.7,0s5.8-19.8,5.8-19.9c0.7-2.3-1.2-5.7-2.6-7.3C22.9,1.2,16.2,0,11,0C6.5,0,2.5,1.6,0.5,5.9
					c-1.5,3.2,0.4,6.8,3.9,7.5c1.2,0.2,2.6,0.3,4.3,0.2c1.3-0.1,2.7,0.7,3.2,1.9C12.3,16.5,12.5,17.9,11.5,19.5"/>
			</g>
			<g id="green-shirt" transform="translate(294.602013, 162.854529)">
				<path id="Fill-403" class="st11" d="M66.3,2.2l30.1-2.1c1.2-0.1,2.5-0.1,3.7,0l2,0.2c4.2,0.3,8.3,1.6,11.9,3.7
					c4.8,2.8,8.5,7.2,10.9,12.3l7.7,16.4L92.9,76.9H59.1V51.8l-8.4,11.1c-2.9,3.8-7.3,6-12,6.1c-4.9,0-9.6-2.3-12.5-6.3L0,26.6
					l10.2-6.8l23.6,26.1L48,14.9c1.6-3.5,4.1-6.5,7.3-8.8C58.5,3.8,62.3,2.5,66.3,2.2"/>
				<path id="Fill-404" class="st12" d="M59,53.1c-0.5,0-0.8-0.4-0.8-1V38.5c0-0.5,0.4-1,0.8-1s0.8,0.4,0.8,1v13.6
					C59.8,52.6,59.5,53.1,59,53.1"/>
			</g>
			<g id="chiar" transform="translate(311.070448, 193.046661)">
				<g id="chair-leg" transform="translate(47.575480, 72.278134)">
					<path id="Fill-379" class="st2" d="M5,98C3.3,98,2,99.4,2,101.1c0,1.7,1.4,3.1,3.1,3.1s3.1-1.4,3.1-3.1C8.1,99.4,6.7,98,5,98
						 M5,106.1c-2.8,0-5-2.3-5-5c0-2.8,2.3-5,5-5s5,2.3,5,5C10.1,103.9,7.8,106.1,5,106.1"/>
					<path id="Fill-380" class="st2" d="M47.5,98.3H3.7c-0.5,0-0.9-0.4-0.9-0.8c0-0.5,0.4-0.8,0.9-0.8h43.9c0.5,0,0.9,0.4,0.9,0.8
						C48.5,97.9,48.1,98.3,47.5,98.3"/>
					<path id="Fill-381" class="st2" d="M25.2,97.9c-0.5,0-0.8-0.4-0.8-0.9v-96c0-0.5,0.4-0.9,0.8-0.9C25.6,0,26,0.4,26,0.9v96
						C26,97.5,25.6,97.9,25.2,97.9"/>
					<path id="Fill-382" class="st2" d="M48,98c-1.7,0-3.1,1.4-3.1,3.1c0,1.7,1.4,3.1,3.1,3.1s3.1-1.4,3.1-3.1
						C51.1,99.4,49.7,98,48,98 M48,106.1c-2.8,0-5-2.3-5-5c0-2.8,2.3-5,5-5c2.8,0,5,2.3,5,5C53.1,103.9,50.8,106.1,48,106.1"/>
				</g>
				<polygon id="Fill-405" class="st1" points="1.8,79.6 108.6,79.6 109.8,73.2 1.8,73.2 				"/>
				<path id="Fill-406" class="st13" d="M1.9,78.6h105.8l0.9-4.4H1.9V78.6z M108.5,80.5H0.9c-0.5,0-0.9-0.4-0.9-1v-6.3
					c0-0.5,0.4-1,0.9-1h108.8c0.3,0,0.6,0.1,0.7,0.4c0.2,0.2,0.2,0.5,0.2,0.8l-1.2,6.3C109.3,80.2,109,80.5,108.5,80.5L108.5,80.5z"
					/>
				<polygon id="Fill-421" class="st1" points="43,74.1 62.3,0.9 129,0.9 110,74.1 				"/>
				<path id="Fill-422" class="st5" d="M44.2,73.1h65l18.5-71.3H63L44.2,73.1z M110,75H43c-0.3,0-0.6-0.1-0.7-0.4
					c-0.2-0.2-0.2-0.5-0.2-0.8L61.4,0.7C61.5,0.3,61.9,0,62.3,0H129c0.3,0,0.6,0.1,0.7,0.4c0.2,0.2,0.2,0.5,0.2,0.8l-19,73.1
					C110.8,74.7,110.4,75,110,75L110,75z"/>
			</g>
		</g>
	</g>
</g>
</svg>
