<svg width="48" height="48" viewBox="0 0 48 48" fill="none" xmlns="http://www.w3.org/2000/svg">
<rect width="48" height="48" rx="24" fill="#F6F6F6"/>
<path d="M24.0196 14.9102C20.7096 14.9102 18.0196 17.6002 18.0196 20.9102V23.8002C18.0196 24.4102 17.7596 25.3402 17.4496 25.8602L16.2996 27.7702C15.5896 28.9502 16.0796 30.2602 17.3796 30.7002C21.6896 32.1402 26.3396 32.1402 30.6496 30.7002C31.8596 30.3002 32.3896 28.8702 31.7296 27.7702L30.5796 25.8602C30.2796 25.3402 30.0196 24.4102 30.0196 23.8002V20.9102C30.0196 17.6102 27.3196 14.9102 24.0196 14.9102Z" stroke="#343434" stroke-width="1.5" stroke-miterlimit="10" stroke-linecap="round"/>
<path d="M25.8699 15.1999C24.6606 14.8555 23.3792 14.8555 22.1699 15.1999C22.4599 14.4599 23.1799 13.9399 24.0199 13.9399C24.8599 13.9399 25.5799 14.4599 25.8699 15.1999Z" stroke="#343434" stroke-width="1.5" stroke-miterlimit="10" stroke-linecap="round" stroke-linejoin="round"/>
<path d="M27.0195 31.0601C27.0195 32.7101 25.6695 34.0601 24.0195 34.0601C23.1995 34.0601 22.4395 33.7201 21.8995 33.1801C21.3377 32.6174 21.0213 31.8552 21.0195 31.0601" stroke="#343434" stroke-width="1.5" stroke-miterlimit="10"/>
<circle cx="36" cy="12" r="4" fill="#EC0000"/>
</svg>
